{"title":"Clear History 2013 English Spanish DVD-R (RLG)","uid":9413522,"size":4226068555,"categoryP":"video","categoryS":"movies_dvdr","magnet":"?xt=urn:btih:fb2bc1874064f4aca4228bf46a051eea5190efec&amp;dn=Clear+History+2013+English+Spanish+DVD-R+%28RLG%29&amp;tr=udp%3A%2F%2Ftracker.openbittorrent.com%3A80&amp;tr=udp%3A%2F%2Fopen.demonii.com%3A1337&amp;tr=udp%3A%2F%2Ftracker.coppersurfer.tk%3A6969&amp;tr=udp%3A%2F%2Fexodus.desync.com%3A6969","seeders":0,"leechers":1,"uploader":"RedLegsGreaves","files":-1,"time":1388368429,"description":" &lt;a href=&quot;http://www.imdb.com/title/tt2279864/&quot; rel=&quot;nofollow&quot; target=&quot;_NEW&quot;&gt;http://www.imdb.com/title/tt2279864/&lt;/a&gt;\nA disgraced former marketing executive plots revenge against his former boss, who made billions from the electric car company they started.\n\nLanguages English, Spanish.\nSubtitles English, Spanish, French, Portuguese, Chinese, Thai.\n\nFor Newer Users.\nSimply Drag downloaded folder to your Media Player. This is a NTSC DVD.\nThis is ripped so you would have best quality, menu, bonus/special feature, language options etc.\nNote DVDs may not have have all* features.\n\nScreenshots &lt;a href=&quot;\nhttp://imageshack.com/a/img542/5708/zi5v.jpg&quot; rel=&quot;nofollow&quot; target=&quot;_NEW&quot;&gt;\nhttp://imageshack.com/a/img542/5708/zi5v.jpg&lt;/a&gt; &lt;a href=&quot;\nhttp://imageshack.com/a/img69/671/2dxc.jpg&quot; rel=&quot;nofollow&quot; target=&quot;_NEW&quot;&gt;\nhttp://imageshack.com/a/img69/671/2dxc.jpg&lt;/a&gt; &lt;a href=&quot;\nhttp://imageshack.com/a/img51/6115/rcpd.jpg&quot; rel=&quot;nofollow&quot; target=&quot;_NEW&quot;&gt;\nhttp://imageshack.com/a/img51/6115/rcpd.jpg&lt;/a&gt; &lt;a href=&quot;\nhttp://imageshack.com/a/img31/6682/caqq.jpg&quot; rel=&quot;nofollow&quot; target=&quot;_NEW&quot;&gt;\nhttp://imageshack.com/a/img31/6682/caqq.jpg&lt;/a&gt; &lt;a href=&quot;\nhttp://imageshack.com/a/img585/518/k0ek.jpg&quot; rel=&quot;nofollow&quot; target=&quot;_NEW&quot;&gt;\nhttp://imageshack.com/a/img585/518/k0ek.jpg&lt;/a&gt; &lt;a href=&quot;\nhttp://imageshack.com/a/img208/7230/ohke.jpg&quot; rel=&quot;nofollow&quot; target=&quot;_NEW&quot;&gt;\nhttp://imageshack.com/a/img208/7230/ohke.jpg&lt;/a&gt; &lt;a href=&quot;\nhttp://imageshack.com/a/img811/212/a9vw.jpg&quot; rel=&quot;nofollow&quot; target=&quot;_NEW&quot;&gt;\nhttp://imageshack.com/a/img811/212/a9vw.jpg&lt;/a&gt; &lt;a href=&quot;\nhttp://imageshack.com/a/img607/514/m1t8.jpg&quot; rel=&quot;nofollow&quot; target=&quot;_NEW&quot;&gt;\nhttp://imageshack.com/a/img607/514/m1t8.jpg&lt;/a&gt;\n\nVideo\nID : 224 (0xE0)\nFormat : MPEG Video\nBit rate mode : Variable\nBit rate : 4 604 Kbps\nWidth : 720 pixels\nHeight : 480 pixels\nDisplay aspect ratio : 16:9\nFrame rate : 29.970 fps\nStandard : NTSC\nColor space : YUV\nChroma subsampling : 4:2:0\nBit depth : 8 bits\nCompression mode : Lossy\nBits/(Pixel*Frame) : 0.445\nStream size : 881 MiB (86%)\n\nAudio #1\nID : 189 (0xBD)-128 (0x80)\nFormat : AC-3\nFormat/Info : Audio Coding 3\nMode extension : CM (complete main)\nFormat settings, Endianness : Big\nMuxing mode : DVD-Video\nDuration : 26mn 45s\nBit rate mode : Constant\nBit rate : 448 Kbps\nChannel count : 6 channels\nChannel positions : Front: L C R, Side: L R, LFE\nSampling rate : 48.0 KHz\nBit depth : 16 bits\nCompression mode : Lossy\nStream size : 85.7 MiB (8%)","torrent":{"xt":"urn:btih:fb2bc1874064f4aca4228bf46a051eea5190efec","amp;dn":"Clear+History+2013+English+Spanish+DVD-R+%28RLG%29","amp;tr":["udp%3A%2F%2Ftracker.openbittorrent.com%3A80","udp%3A%2F%2Fopen.demonii.com%3A1337","udp%3A%2F%2Ftracker.coppersurfer.tk%3A6969","udp%3A%2F%2Fexodus.desync.com%3A6969"],"infoHash":"fb2bc1874064f4aca4228bf46a051eea5190efec","infoHashBuffer":{"type":"Buffer","data":[251,43,193,135,64,100,244,172,164,34,139,244,106,5,30,234,81,144,239,236]},"announce":[],"urlList":[]}}